<svg width="120" height="120" viewBox="0 0 120 120" fill="none" xmlns="http://www.w3.org/2000/svg">
<rect width="120" height="120" rx="60" fill="white"/>
<g clip-path="url(#clip0_31_1251)">
<path d="M50.5639 86.9281H69.4339C71.7289 86.9281 73.6669 85.1946 73.8709 82.9501L77.8999 46.5361H42.0469L46.0759 82.9501C46.3309 85.1941 48.2689 86.9281 50.5639 86.9281Z" fill="white"/>
<path d="M75.0206 72.5461H68.0336L66.8825 82.9501C66.6275 85.1941 64.6895 86.9281 62.3945 86.9281H69.4325C71.7275 86.9281 73.6655 85.1946 73.8695 82.9501L75.0206 72.5461ZM77.8985 46.5361H70.9115L69.7717 56.8381H71.4215H76.7582L77.8985 46.5361Z" fill="#E7E7E7"/>
<path d="M39.8047 39.2432H80.1967V45.9752H39.8047V39.2432Z" fill="#A8B2C6"/>
<path d="M80.1942 39.804H73.1562V45.975H80.1942V39.804Z" fill="#99A2B4"/>
<path d="M44.2891 39.804L46.7881 33.072H73.1551L75.7051 39.804H44.2891Z" fill="#A8B2C6"/>
<path d="M73.1552 33.072H66.1172L68.6672 39.804H75.7052L75.4925 39.243L73.1552 33.072Z" fill="#99A2B4"/>
<path d="M76.8278 72.5459H43.1678L41.3828 56.8379H78.6128L76.8278 72.5459Z" fill="#F37C7E"/>
<path d="M78.4595 56.8379H76.7586H71.4215L69.6875 72.5459H76.7255L78.4595 56.8379Z" fill="#DC7173"/>
<path d="M59.8474 60.2041C62.326 60.2041 64.3354 62.213 64.3354 64.6921C64.3354 67.1712 62.3265 69.1801 59.8474 69.1801C57.3683 69.1801 55.3594 67.1712 55.3594 64.6921C55.3594 62.213 57.3688 60.2041 59.8474 60.2041Z" fill="#F4F1E7"/>
<path d="M80.1954 38.274H76.7784L74.5854 32.511C74.3814 31.95 73.8204 31.542 73.1574 31.542H46.7904C46.1784 31.542 45.5664 31.899 45.3624 32.511L43.2204 38.274H39.8034C38.9364 38.274 38.2734 38.937 38.2734 39.804V46.536C38.2734 47.403 38.9364 48.066 39.8034 48.066H40.7214L44.5974 83.103C44.9034 86.163 47.5044 88.458 50.5644 88.458H69.4344C72.4944 88.458 75.0954 86.163 75.5034 83.154L79.3794 48.066H80.1954C81.0624 48.066 81.7254 47.403 81.7254 46.536V39.804C81.7254 38.937 81.0624 38.274 80.1954 38.274ZM47.8614 34.602H72.0864L73.4634 38.274H46.4844L47.8614 34.602ZM41.3334 41.334H44.2914H75.7074H78.6654V45.006H41.3334V41.334ZM72.4434 82.797C72.2394 84.327 71.0154 85.449 69.4854 85.449H50.6154C49.0854 85.449 47.8104 84.276 47.6574 82.797L43.8324 48.066H76.3194L72.4434 82.797Z" fill="#010101"/>
<path d="M76.8283 74.0761H43.1683C42.4033 74.0761 41.7403 73.5151 41.6383 72.6991L39.9043 56.9911C39.8533 56.5831 40.0063 56.1241 40.2613 55.8181C40.5673 55.5121 40.9753 55.3081 41.3833 55.3081H78.5623C79.0213 55.3081 79.4293 55.5121 79.6843 55.8181C79.9903 56.1241 80.0923 56.5831 80.0413 56.9911L78.3583 72.7501C78.3073 73.5151 77.6443 74.0761 76.8283 74.0761ZM44.4943 71.0161H75.4513L76.8793 58.3681H43.1173L44.4943 71.0161Z" fill="#010101"/>
</g>
<defs>
<clipPath id="clip0_31_1251">
<rect width="72" height="72" fill="white" transform="translate(24 24)"/>
</clipPath>
</defs>
</svg>
