<svg width="120" height="120" viewBox="0 0 120 120" fill="none" xmlns="http://www.w3.org/2000/svg">
<rect width="120" height="120" rx="60" fill="white"/>
<g clip-path="url(#clip0_31_1305)">
<path d="M83.8219 33.675H33.8044C32.3505 33.675 31.1719 34.8537 31.1719 36.3075V70.53C31.1719 71.984 32.3505 73.1625 33.8044 73.1625H83.8219C85.2758 73.1625 86.4544 71.984 86.4544 70.53V36.3075C86.4544 34.8537 85.2758 33.675 83.8219 33.675Z" fill="#66E1FF"/>
<path d="M33.8044 33.675C33.1062 33.675 32.4366 33.9524 31.9429 34.4461C31.4492 34.9398 31.1719 35.6094 31.1719 36.3075V70.53C31.1764 70.9268 31.2721 71.3169 31.4515 71.6707C31.6309 72.0245 31.8892 72.3323 32.2064 72.5702L71.1016 33.675H33.8044Z" fill="#C2F3FF"/>
<path d="M64.4449 49.8386L60.0566 63.0011H46.8941L42.9453 49.8386H64.4449Z" fill="#FF808C" stroke="#010101" stroke-width="3" stroke-linecap="round" stroke-linejoin="round"/>
<path d="M46.8945 49.8386L50.8433 43.2573" stroke="#010101" stroke-width="3" stroke-linecap="round" stroke-linejoin="round"/>
<path d="M60.0581 49.8386L56.1094 43.2573" stroke="#010101" stroke-width="3" stroke-linecap="round" stroke-linejoin="round"/>
<path d="M70.3946 86.325L62.3392 74.2366C59.1407 69.3533 67.0487 67.708 70.6842 75.8477V54.735C70.6842 54.0368 70.9617 53.3673 71.4552 52.8736C71.9488 52.3799 72.6186 52.1025 73.3167 52.1025C74.0148 52.1025 74.6845 52.3799 75.1781 52.8736C75.6717 53.3673 75.9492 54.0368 75.9492 54.735V67.2499L86.3923 70.2668C87.2216 70.5082 87.9271 71.0579 88.3643 71.8029C88.8013 72.5478 88.9369 73.4318 88.7431 74.2735L88.5194 75.2396L86.5055 86.325" fill="#FFDDA1"/>
<path d="M70.7618 86.6937L62.7063 74.6053C59.5079 69.722 67.4159 68.0767 71.0514 76.2163V55.1037C71.0514 54.4055 71.3288 53.7359 71.8224 53.2422C72.316 52.7486 72.9857 52.4712 73.6839 52.4712C74.382 52.4712 75.0517 52.7486 75.5453 53.2422C76.0389 53.7359 76.3164 54.4055 76.3164 55.1037V67.6186L86.7595 70.6354C87.5887 70.8768 88.2942 71.4265 88.7315 72.1715C89.1685 72.9165 89.3041 73.8005 89.1103 74.6421L88.8866 75.6082L86.8727 86.6937" stroke="#010101" stroke-width="3" stroke-linecap="round" stroke-linejoin="round"/>
<path d="M57.8641 73.531H34.1716C33.4734 73.531 32.8038 73.2535 32.3101 72.7599C31.8164 72.2663 31.5391 71.5966 31.5391 70.8985V36.676C31.5391 35.9778 31.8164 35.3082 32.3101 34.8145C32.8038 34.3208 33.4734 34.0435 34.1716 34.0435H84.1891C84.8872 34.0435 85.5569 34.3208 86.0505 34.8145C86.5441 35.3082 86.8216 35.9778 86.8216 36.676V65.6335" stroke="#010101" stroke-width="3" stroke-linecap="round" stroke-linejoin="round"/>
<path d="M46.0156 81.4287H59.1781" stroke="#010101" stroke-width="3" stroke-linecap="round" stroke-linejoin="round"/>
<path d="M55.2344 73.5312V81.4287" stroke="#010101" stroke-width="3" stroke-linecap="round" stroke-linejoin="round"/>
</g>
<defs>
<clipPath id="clip0_31_1305">
<rect width="72" height="72" fill="white" transform="translate(24 24)"/>
</clipPath>
</defs>
</svg>
