<svg width="120" height="120" viewBox="0 0 120 120" fill="none" xmlns="http://www.w3.org/2000/svg">
<rect width="120" height="120" rx="60" fill="white"/>
<g clip-path="url(#clip0_31_1330)">
<path d="M81.1641 67.4699H87.3891C87.7192 67.4699 88.036 67.3386 88.2695 67.1053C88.5028 66.8718 88.6341 66.555 88.6341 66.2249C88.4921 46.9772 84.5305 32.6099 81.1641 32.6099V84.8999" fill="#E3E3E3"/>
<path d="M87.537 49.878C86.0928 39.3926 83.5007 32.6099 81.1875 32.6099V56.2275L87.537 49.878Z" fill="white"/>
<path d="M82.1602 68.466H88.3852C88.7153 68.466 89.0321 68.3347 89.2656 68.1014C89.4989 67.8679 89.6302 67.5511 89.6302 67.221C89.4882 47.9733 85.5266 33.606 82.1602 33.606V85.896" stroke="#010101" stroke-width="3" stroke-linecap="round" stroke-linejoin="round"/>
<path d="M32.3594 36.0959V46.0559C32.3594 48.0371 33.1464 49.9371 34.5473 51.338C35.9482 52.7389 37.8482 53.5259 39.8294 53.5259C41.8105 53.5259 43.7106 52.7389 45.1115 51.338C46.5124 49.9371 47.2994 48.0371 47.2994 46.0559V36.0959" stroke="#010101" stroke-width="3" stroke-linecap="round" stroke-linejoin="round"/>
<path d="M39.8281 36.0957V85.8957" stroke="#010101" stroke-width="3" stroke-linecap="round" stroke-linejoin="round"/>
<path d="M59.9975 84.8998C63.1986 84.8998 66.3278 83.9506 68.9894 82.1722C71.6509 80.3936 73.7254 77.866 74.9504 74.9084C76.1755 71.951 76.496 68.6969 75.8715 65.5572C75.247 62.4176 73.7055 59.5337 71.442 57.2702C69.1786 55.0068 66.2947 53.4653 63.1551 52.8408C60.0154 52.2163 56.7612 52.5368 53.8038 53.7618C50.8464 54.9868 48.3186 57.0613 46.5402 59.7229C44.7617 62.3845 43.8125 65.5136 43.8125 68.7148C43.8125 70.8403 44.2311 72.9448 45.0445 74.9084C45.8579 76.8723 47.05 78.6564 48.553 80.1593C51.5882 83.1946 55.705 84.8998 59.9975 84.8998Z" fill="#E3E3E3"/>
<path d="M60.9936 85.8959C64.1947 85.8959 67.3239 84.9467 69.9855 83.1683C72.647 81.3897 74.7215 78.8621 75.9465 75.9045C77.1716 72.9471 77.4921 69.693 76.8676 66.5533C76.2431 63.4137 74.7015 60.5298 72.4381 58.2663C70.1747 56.0029 67.2908 54.4614 64.1512 53.8369C61.0115 53.2124 57.7573 53.5329 54.7999 54.7579C51.8424 55.9829 49.3147 58.0574 47.5363 60.719C45.7578 63.3806 44.8086 66.5097 44.8086 69.7109C44.8086 71.8363 45.2272 73.9409 46.0406 75.9045C46.854 77.8684 48.0461 79.6525 49.5491 81.1554C52.5843 84.1907 56.7011 85.8959 60.9936 85.8959Z" stroke="#010101" stroke-width="3" stroke-linecap="round" stroke-linejoin="round"/>
<path d="M59.998 79.9198C62.2141 79.9198 64.3804 79.2627 66.2232 78.0314C68.0658 76.8001 69.502 75.0501 70.3501 73.0028C71.1982 70.9553 71.4201 68.7024 70.9876 66.5288C70.5553 64.3553 69.4881 62.3588 67.9211 60.7916C66.3539 59.2247 64.3575 58.1575 62.1839 57.7252C60.0104 57.2927 57.7575 57.5145 55.7099 58.3626C53.6626 59.2107 51.9126 60.647 50.6814 62.4896C49.4501 64.3324 48.793 66.4987 48.793 68.7148C48.793 70.1864 49.0828 71.6433 49.6459 73.0028C50.209 74.3621 51.0344 75.5974 52.0748 76.638C54.1762 78.7393 57.0262 79.9198 59.998 79.9198Z" fill="#B2B2B2"/>
<path d="M60.2259 77.8059C60.4448 77.9765 60.7142 78.0691 60.9916 78.0691C61.269 78.0691 61.5384 77.9765 61.7573 77.8059C63.829 76.1899 69.3842 71.5112 69.3842 67.8683C69.3842 62.704 62.5192 61.0706 60.9929 67.3529C59.4665 61.0706 52.6016 62.704 52.6016 67.8683C52.6016 71.5087 58.1543 76.1849 60.2259 77.8059Z" fill="#FF808C" stroke="#010101" stroke-width="3" stroke-linecap="round" stroke-linejoin="round"/>
</g>
<defs>
<clipPath id="clip0_31_1330">
<rect width="72" height="72" fill="white" transform="translate(24 24)"/>
</clipPath>
</defs>
</svg>
