<svg width="120" height="120" viewBox="0 0 120 120" fill="none" xmlns="http://www.w3.org/2000/svg">
<rect width="120" height="120" rx="60" fill="white"/>
<g clip-path="url(#clip0_31_1278)">
<path d="M66.5798 54.7349V44.2049C66.5798 43.8558 66.4411 43.521 66.1944 43.2742C65.9475 43.0274 65.6127 42.8887 65.2636 42.8887H48.1523V69.2137H66.5798V54.7349Z" fill="#B2B2B2"/>
<path d="M90.2708 56.0513L76.337 69.9851C75.8434 70.4787 75.1739 70.7559 74.4758 70.7559C73.7776 70.7559 73.1082 70.4787 72.6146 69.9851L65.807 63.1774C65.3134 62.6839 64.6439 62.4067 63.9458 62.4067C63.2476 62.4067 62.5782 62.6839 62.0846 63.1774L34.9883 90.2738H85.0058C86.4021 90.2738 87.7412 89.7191 88.7287 88.7316C89.7161 87.7442 90.2708 86.405 90.2708 85.0088V56.0513Z" fill="#78EB7B"/>
<path d="M90.6419 56.4197L76.7081 70.3535C76.2145 70.8471 75.545 71.1243 74.8469 71.1243C74.1487 71.1243 73.4793 70.8471 72.9857 70.3535L66.1781 63.5459C65.6845 63.0523 65.015 62.7751 64.3169 62.7751C63.6187 62.7751 62.9493 63.0523 62.4557 63.5459L35.3594 90.6422" stroke="#010101" stroke-width="3" stroke-linecap="round" stroke-linejoin="round"/>
<path d="M90.6394 66.9497V56.4197H80.1094" stroke="#010101" stroke-width="3" stroke-linecap="round" stroke-linejoin="round"/>
<path d="M30.0938 68.2923C30.0938 68.6413 30.2324 68.9762 30.4793 69.2231C30.7261 69.47 31.0609 69.6085 31.41 69.6085H48.5212V33.3064C48.5213 33.0955 48.4706 32.8877 48.3736 32.7004C48.2765 32.5132 48.1359 32.352 47.9635 32.2305C47.7911 32.109 47.5921 32.0306 47.3831 32.0021C47.1741 31.9736 46.9614 31.9956 46.7627 32.0665L30.9677 37.7053C30.7119 37.7966 30.4906 37.9647 30.3342 38.1867C30.1777 38.4087 30.0937 38.6736 30.0938 38.9452V68.2923Z" fill="#E3E3E3" stroke="#010101" stroke-width="3" stroke-linecap="round" stroke-linejoin="round"/>
<path d="M32.7266 36.676V30.0947" stroke="#010101" stroke-width="3" stroke-linecap="round" stroke-linejoin="round"/>
<path d="M48.5225 43.2573H40.625" stroke="#010101" stroke-width="3" stroke-linecap="round" stroke-linejoin="round"/>
<path d="M66.9483 51.1548H59.0508" stroke="#010101" stroke-width="3" stroke-linecap="round" stroke-linejoin="round"/>
<path d="M48.522 51.1548H36.6758" stroke="#010101" stroke-width="3" stroke-linecap="round" stroke-linejoin="round"/>
<path d="M43.2569 69.5822V60.3685C43.2569 60.0194 43.1182 59.6846 42.8713 59.4376C42.6245 59.191 42.2897 59.0522 41.9406 59.0522H36.6756C36.3265 59.0522 35.9917 59.191 35.7449 59.4376C35.4981 59.6846 35.3594 60.0194 35.3594 60.3685V69.5822H43.2569Z" fill="#66E1FF" stroke="#010101" stroke-width="3" stroke-linecap="round" stroke-linejoin="round"/>
<path d="M48.5195 43.2573H65.6308C65.9799 43.2573 66.3147 43.396 66.5616 43.6429C66.8083 43.8897 66.947 44.2245 66.947 44.5736V55.1036" stroke="#010101" stroke-width="3" stroke-linecap="round" stroke-linejoin="round"/>
</g>
<defs>
<clipPath id="clip0_31_1278">
<rect width="72" height="72" fill="white" transform="translate(24 24)"/>
</clipPath>
</defs>
</svg>
