<svg width="32" height="32" viewBox="0 0 32 32" fill="none" xmlns="http://www.w3.org/2000/svg">
<path d="M26.2235 5.00204C26.5336 4.98735 26.869 5.04993 27.2079 5.25595C27.5432 5.45836 27.8213 5.83746 27.9296 6.24228C28.0378 6.64715 28.0123 7.06352 27.9149 7.50888L24.4667 25.5333L24.4344 25.6173C24.4344 25.6173 24.2395 26.1435 23.7381 26.5558C23.2404 26.9643 22.2995 27.1963 21.369 26.7804L21.2684 26.7364L16.8065 23.2433L14.1454 25.7169L14.1122 25.7423C14.1094 25.7444 13.5374 26.1949 12.8251 25.9747C12.7782 25.9673 12.7527 25.9633 12.7167 25.9522C12.7059 25.9485 12.6949 25.9373 12.6805 25.9337L12.7274 25.9454C12.7058 25.9417 12.6878 25.9379 12.6698 25.9268C12.6121 25.9048 12.554 25.8789 12.4999 25.8458C12.363 25.7575 12.2476 25.6471 12.1503 25.5147C11.9483 25.2571 11.7859 24.9181 11.62 24.377C11.3386 23.4712 10.1667 19.5405 9.96471 18.878L5.4569 17.3282H5.44909C5.43523 17.3232 5.14301 17.216 4.83678 16.9933C4.52662 16.7687 4.09358 16.3607 4.01061 15.6798C3.96014 15.2788 4.09706 14.8888 4.26647 14.6349C4.43597 14.3809 4.63076 14.2185 4.80748 14.1007C5.1483 13.8616 5.47507 13.7506 5.48522 13.7472L5.4276 13.7696C5.4276 13.7696 10.2354 11.7013 15.1258 9.5997C17.5747 8.54703 20.0416 7.48614 21.9422 6.66903C23.8429 5.85562 25.095 5.31874 25.3583 5.212H25.3612C25.6209 5.10894 25.9133 5.01677 26.2235 5.00204ZM26.1288 6.93466C26.0747 6.93466 26.1108 6.93451 26.035 6.96396C25.9548 6.99745 24.5516 7.59319 22.6551 8.40634C20.7581 9.22343 18.2913 10.2834 15.8426 11.336C10.9802 13.4256 6.19628 15.4824 6.14147 15.5059L6.11217 15.5177L6.08385 15.5323C6.08385 15.5323 6.05816 15.5431 6.05455 15.5431C6.05816 15.5431 6.0656 15.547 6.0692 15.547V15.5509L11.4569 17.4024L11.4608 17.42L22.702 10.3126C22.702 10.3126 23.2829 10.0116 23.2577 10.4386C23.259 10.4394 23.3784 10.5137 23.0126 10.8614C22.6446 11.2112 14.1234 19.3173 14.0975 19.3419L13.4051 23.8546L16.701 20.7882L22.1581 25.0577C22.4573 25.1791 22.5147 25.142 22.5868 25.0831C22.6552 25.0279 22.6807 24.9731 22.6952 24.9474L26.1112 7.11044V7.0997C26.1363 6.98612 26.1253 6.99299 26.1288 6.93466Z" fill="#888888"/>
</svg>
