<svg width="48" height="48" viewBox="0 0 48 48" fill="none" xmlns="http://www.w3.org/2000/svg">
<path d="M24 48C37.2548 48 48 37.2548 48 24C48 10.7452 37.2548 0 24 0C10.7452 0 0 10.7452 0 24C0 37.2548 10.7452 48 24 48Z" fill="#3FD554"/>
<path d="M24 16C26.1732 16 26.4453 16.0098 27.2998 16.0498C30.2064 16.1818 31.8214 17.7986 31.9521 20.7012C31.9908 21.5558 32 21.828 32 24C32 26.1733 31.9908 26.4455 31.9521 27.2988C31.8214 30.2067 30.2011 31.8188 27.2998 31.9521C26.4453 31.9908 26.1732 32 24 32C21.8267 32 21.5558 31.9908 20.7012 31.9521C17.7947 31.8188 16.1812 30.204 16.0479 27.2988C16.0092 26.4455 16 26.1733 16 24C16 21.828 16.0092 21.5558 16.0479 20.7012C16.1812 17.7947 17.7947 16.1832 20.7012 16.0498C21.3421 16.0198 21.6548 16.0065 22.6875 16.002L24 16ZM24 17.4424C21.864 17.4424 21.6102 17.4496 20.7676 17.4883C18.5974 17.5871 17.5871 18.6147 17.4883 20.7676C17.4509 21.6102 17.4414 21.864 17.4414 24C17.4414 26.136 17.4509 26.3898 17.4883 27.2324C17.5884 29.38 18.5947 30.4116 20.7676 30.5117C21.6102 30.5504 21.864 30.5586 24 30.5586C26.1373 30.5586 26.3894 30.5491 27.2334 30.5117C29.4039 30.413 30.4136 29.3828 30.5137 27.2324C30.551 26.3898 30.5586 26.136 30.5586 24C30.5586 21.864 30.551 21.6116 30.5137 20.7676C30.4136 18.6159 29.4026 17.5879 27.2334 17.4893C26.3894 17.4506 26.136 17.4424 24 17.4424ZM24 19.8926C26.2678 19.8928 28.1074 21.7322 28.1074 24C28.1074 26.2692 26.2678 28.1082 24 28.1084C21.732 28.1084 19.8916 26.2693 19.8916 24C19.8917 21.7307 21.732 19.8926 24 19.8926ZM24 21.333C22.5267 21.333 21.333 22.528 21.333 24C21.3332 25.4732 22.5268 26.666 24 26.666C25.4717 26.6658 26.6678 25.4731 26.668 24C26.668 22.5268 25.4719 21.3332 24 21.333ZM28.2695 18.7705C28.8014 18.7706 29.2304 19.2 29.2305 19.7305C29.2305 20.2611 28.8001 20.6903 28.2695 20.6904C27.7389 20.6904 27.3096 20.2598 27.3096 19.7305C27.3097 19.1999 27.7403 18.7705 28.2695 18.7705Z" fill="white"/>
</svg>
