<svg width="24" height="24" viewBox="0 0 24 24" fill="none" xmlns="http://www.w3.org/2000/svg">
<path fill-rule="evenodd" clip-rule="evenodd" d="M2.22222 5C1.89807 5 1.58719 5.12292 1.35798 5.34171C1.12877 5.5605 1 5.85725 1 6.16667C1 6.47609 1.12877 6.77283 1.35798 6.99162C1.58719 7.21042 1.89807 7.33333 2.22222 7.33333H21.7778C22.1019 7.33333 22.4128 7.21042 22.642 6.99162C22.8712 6.77283 23 6.47609 23 6.16667C23 5.85725 22.8712 5.5605 22.642 5.34171C22.4128 5.12292 22.1019 5 21.7778 5H2.22222ZM1 12C1 11.6906 1.12877 11.3938 1.35798 11.175C1.58719 10.9562 1.89807 10.8333 2.22222 10.8333H21.7778C22.1019 10.8333 22.4128 10.9562 22.642 11.175C22.8712 11.3938 23 11.6906 23 12C23 12.3094 22.8712 12.6062 22.642 12.825C22.4128 13.0437 22.1019 13.1667 21.7778 13.1667H2.22222C1.89807 13.1667 1.58719 13.0437 1.35798 12.825C1.12877 12.6062 1 12.3094 1 12ZM1 17.8333C1 17.5239 1.12877 17.2272 1.35798 17.0084C1.58719 16.7896 1.89807 16.6667 2.22222 16.6667H21.7778C22.1019 16.6667 22.4128 16.7896 22.642 17.0084C22.8712 17.2272 23 17.5239 23 17.8333C23 18.1428 22.8712 18.4395 22.642 18.6583C22.4128 18.8771 22.1019 19 21.7778 19H2.22222C1.89807 19 1.58719 18.8771 1.35798 18.6583C1.12877 18.4395 1 18.1428 1 17.8333Z" fill="#2E2C36"/>
</svg>
