<svg width="20" height="20" viewBox="0 0 20 20" fill="none" xmlns="http://www.w3.org/2000/svg">
<path d="M10 0.833008C11.9891 0.833008 13.8972 1.62375 15.3037 3.03027C16.71 4.43669 17.4999 6.34416 17.5 8.33301C17.5 14.1663 10 19.167 10 19.167C10 19.167 2.5 14.1663 2.5 8.33301C2.50009 6.34416 3.29005 4.43669 4.69629 3.03027C6.10281 1.62375 8.01088 0.833008 10 0.833008ZM10 5.83301C8.6194 5.83301 7.50018 6.95245 7.5 8.33301C7.5 9.71372 8.61929 10.833 10 10.833C11.3807 10.833 12.5 9.71372 12.5 8.33301C12.4998 6.95245 11.3806 5.83301 10 5.83301Z" fill="#101010"/>
</svg>
