<svg width="32" height="32" viewBox="0 0 32 32" fill="none" xmlns="http://www.w3.org/2000/svg">
<path fill-rule="evenodd" clip-rule="evenodd" d="M20.2445 9.82479C17.3671 6.9474 12.7019 6.9474 9.82454 9.82479C6.94716 12.7022 6.94716 17.3673 9.82454 20.2447C12.7019 23.1221 17.3671 23.1221 20.2445 20.2447C23.1218 17.3673 23.1218 12.7022 20.2445 9.82479ZM21.6587 8.41057C18.0002 4.75214 12.0688 4.75214 8.41033 8.41057C4.7519 12.069 4.7519 18.0005 8.41033 21.6589C12.0688 25.3174 18.0002 25.3174 21.6587 21.6589C25.3171 18.0005 25.3171 12.069 21.6587 8.41057Z" fill="#888888"/>
<path fill-rule="evenodd" clip-rule="evenodd" d="M20.2406 20.2409C20.6312 19.8504 21.2643 19.8504 21.6549 20.2409L26.0415 24.6276C26.4321 25.0181 26.4321 25.6512 26.0415 26.0418C25.651 26.4323 25.0178 26.4323 24.6273 26.0418L20.2406 21.6551C19.8501 21.2646 19.8501 20.6314 20.2406 20.2409Z" fill="#888888"/>
</svg>
