<svg width="16" height="15" viewBox="0 0 16 15" fill="none" xmlns="http://www.w3.org/2000/svg">
<path d="M7.52229 0.545905C7.66748 0.0760659 8.33252 0.0760674 8.47771 0.545906L9.67076 4.4067C9.80024 4.82571 10.1876 5.11146 10.6262 5.11146H14.5219C15.0001 5.11146 15.2054 5.71845 14.8254 6.00878L11.61 8.46509C11.277 8.7195 11.1379 9.15459 11.2617 9.55499L12.4824 13.5054C12.6261 13.9705 12.088 14.3459 11.7012 14.0504L8.60706 11.6867C8.24866 11.4129 7.75134 11.4129 7.39294 11.6867L4.29882 14.0504C3.91198 14.3459 3.37385 13.9705 3.51758 13.5054L4.73833 9.55499C4.86206 9.15458 4.723 8.7195 4.38997 8.46509L1.17462 6.00878C0.794561 5.71845 0.999881 5.11146 1.47815 5.11146H5.37381C5.81237 5.11146 6.19976 4.82571 6.32924 4.4067L7.52229 0.545905Z" fill="#FA9816"/>
</svg>
